<svg width="37" height="37" viewBox="0 0 37 37" fill="none" xmlns="http://www.w3.org/2000/svg">
<path fill-rule="evenodd" clip-rule="evenodd" d="M28.013 18.414C28.013 23.627 23.787 27.852 18.575 27.852C13.362 27.852 9.13702 23.627 9.13702 18.414C9.13702 13.202 13.362 8.97701 18.575 8.97701C23.787 8.97701 28.013 13.202 28.013 18.414Z" stroke="black" stroke-width="1.35"/>
<path fill-rule="evenodd" clip-rule="evenodd" d="M22.322 18.414C22.322 23.627 18.574 27.852 18.574 27.852C18.574 27.852 14.827 23.627 14.827 18.414C14.827 13.202 18.574 8.97701 18.574 8.97701C18.574 8.97701 22.322 13.202 22.322 18.414Z" stroke="black" stroke-width="1.35" stroke-linejoin="round"/>
<path d="M9.53601 15.518H27.612M9.53601 21.311H27.612" stroke="black" stroke-width="1.35"/>
</svg>
